<?xml version="1.0" encoding="utf-8"?>
<!-- Generator: Adobe Illustrator 22.0.1, SVG Export Plug-In . SVG Version: 6.00 Build 0)  -->
<svg version="1.1" id="Ebene_1" xmlns="http://www.w3.org/2000/svg" xmlns:xlink="http://www.w3.org/1999/xlink" x="0px" y="0px"
	 viewBox="0 0 512 512" style="enable-background:new 0 0 512 512;" xml:space="preserve">
<style type="text/css">
	.st0{fill:#FFFFFF;}
	.st1{fill:url(#SVGID_1_);}
	.st2{fill:none;}
	.st3{fill:url(#SVGID_2_);}
	.st4{fill:#A6A6A6;}
</style>
<g>
	<path class="st0" d="M443,468c0,11-9,20-20,20H89c-11,0-20-9-20-20V44c0-11,9-20,20-20h234c11,0,26.364,6.364,34.142,14.142
		l71.716,71.716C436.636,117.636,443,133,443,144V468z"/>
	<linearGradient id="SVGID_1_" gradientUnits="userSpaceOnUse" x1="379.3681" y1="516.2671" x2="92.2861" y2="19.0266">
		<stop  offset="0" style="stop-color:#0E81C3"/>
		<stop  offset="1" style="stop-color:#31C6E6"/>
	</linearGradient>
	<path class="st1" d="M323,37c7.512,0,19.638,5.022,24.95,10.334l71.716,71.716C424.978,124.362,430,136.487,430,144v324
		c0,3.794-3.206,7-7,7H89c-3.794,0-7-3.206-7-7V44c0-3.794,3.206-7,7-7H323 M323,24H89c-11,0-20,9-20,20v424c0,11,9,20,20,20h334
		c11,0,20-9,20-20V144c0-11-6.364-26.364-14.142-34.142l-71.716-71.716C349.364,30.364,334,24,323,24L323,24z"/>
</g>
<g>
	<rect x="128" y="153" class="st2" width="256" height="144"/>
	<path class="st0" d="M228.7,172.874h58.05v16.2h-40.2v26.4h31.05v16.2h-31.05v51.45H228.7V172.874z"/>
</g>
<g>
	<linearGradient id="SVGID_2_" gradientUnits="userSpaceOnUse" x1="155.9911" y1="332.6865" x2="356.0089" y2="132.6687">
		<stop  offset="0" style="stop-color:#0E81C3"/>
		<stop  offset="1" style="stop-color:#31C6E6"/>
	</linearGradient>
	<path class="st3" d="M361.79,159.625c3.715,0,6.737,3.022,6.737,6.737v132.632c0,3.715-3.022,6.737-6.737,6.737h-59.145h-5.385
		l-3.808,3.808L256,346.99l-37.452-37.452l-3.808-3.808h-5.385H150.21c-3.715,0-6.737-3.022-6.737-6.737V166.362
		c0-3.715,3.022-6.737,6.737-6.737H361.79 M361.79,146.625H150.21c-10.9,0-19.737,8.837-19.737,19.737v132.632
		c0,10.9,8.837,19.737,19.737,19.737h59.145L256,365.375l46.645-46.645h59.145c10.9,0,19.737-8.836,19.737-19.737V166.362
		C381.527,155.461,372.69,146.625,361.79,146.625L361.79,146.625z"/>
</g>
<g>
	<rect x="69" y="384.002" class="st2" width="374" height="84.15"/>
	<path class="st4" d="M119.424,396.398h28.945v5.332h-23.004v18.434h19.957v5.332h-19.957v24.832h-5.941V396.398z"/>
	<path class="st4" d="M164.365,409.824c2.057-0.876,4.342-1.314,6.855-1.314s4.799,0.438,6.855,1.314s3.745,2.037,5.065,3.484
		c1.016,1.118,1.834,2.33,2.456,3.638s1.054,2.768,1.295,4.38c0.241,1.613,0.388,2.945,0.438,3.999s0.076,2.521,0.076,4.399
		s-0.025,3.346-0.076,4.398c-0.051,1.054-0.197,2.387-0.438,3.999s-0.673,3.072-1.295,4.38c-0.622,1.309-1.44,2.52-2.456,3.637
		c-1.32,1.447-3.009,2.609-5.065,3.485s-4.342,1.313-6.855,1.313s-4.799-0.438-6.855-1.313s-3.745-2.038-5.065-3.485
		c-1.016-1.117-1.835-2.328-2.456-3.637c-0.623-1.308-1.055-2.768-1.295-4.38c-0.242-1.612-0.388-2.945-0.438-3.999
		c-0.051-1.053-0.076-2.52-0.076-4.398s0.025-3.346,0.076-4.399s0.196-2.386,0.438-3.999c0.24-1.612,0.672-3.072,1.295-4.38
		c0.621-1.308,1.44-2.52,2.456-3.638C160.62,411.861,162.309,410.7,164.365,409.824z M171.221,413.613
		c-3.301,0-5.827,1.004-7.579,3.01c-0.686,0.787-1.237,1.67-1.657,2.646c-0.418,0.978-0.711,2.12-0.875,3.428
		c-0.166,1.309-0.268,2.399-0.305,3.275c-0.039,0.876-0.058,2.127-0.058,3.752s0.019,2.875,0.058,3.751
		c0.037,0.876,0.139,1.968,0.305,3.275c0.164,1.308,0.457,2.45,0.875,3.428c0.42,0.978,0.972,1.86,1.657,2.647
		c1.752,2.006,4.278,3.008,7.579,3.008s5.827-1.002,7.579-3.008c0.686-0.787,1.237-1.67,1.657-2.647
		c0.418-0.978,0.71-2.12,0.875-3.428s0.268-2.399,0.305-3.275c0.039-0.876,0.058-2.126,0.058-3.751s-0.019-2.876-0.058-3.752
		c-0.037-0.876-0.14-1.967-0.305-3.275c-0.165-1.308-0.457-2.45-0.875-3.428c-0.42-0.977-0.972-1.859-1.657-2.646
		C177.048,414.617,174.521,413.613,171.221,413.613z"/>
	<path class="st4" d="M197.881,409.119h5.713v23.805c0,3.428,0.19,5.726,0.571,6.893c0.635,1.956,1.739,3.447,3.313,4.476
		s3.39,1.542,5.446,1.542s3.872-0.514,5.446-1.542s2.679-2.52,3.313-4.476c0.381-1.167,0.571-3.465,0.571-6.893v-23.805h5.713
		v24.186c0,1.346-0.013,2.38-0.038,3.104s-0.114,1.619-0.267,2.686s-0.394,2.031-0.724,2.895c-1.066,2.895-2.813,5.109-5.237,6.646
		s-5.351,2.304-8.778,2.304s-6.354-0.768-8.778-2.304c-2.426-1.536-4.171-3.751-5.237-6.646c-0.33-0.863-0.571-1.828-0.724-2.895
		s-0.241-1.962-0.267-2.686s-0.038-1.758-0.038-3.104V409.119z"/>
	<path class="st4" d="M255.962,408.51c2.818,0,5.376,0.743,7.675,2.229c2.297,1.485,3.979,3.561,5.046,6.227
		c0.381,0.914,0.66,1.956,0.838,3.123c0.178,1.168,0.279,2.152,0.305,2.952s0.038,1.962,0.038,3.485v23.803h-5.713v-23.422
		c0-2.412-0.051-4.158-0.152-5.237s-0.381-2.114-0.838-3.104c-0.711-1.574-1.809-2.793-3.295-3.656
		c-1.484-0.862-3.167-1.295-5.046-1.295s-3.562,0.433-5.046,1.295c-1.486,0.863-2.584,2.082-3.295,3.656
		c-0.457,0.99-0.736,2.025-0.838,3.104s-0.152,2.825-0.152,5.237v23.422h-5.713v-41.209h5.713v4.342
		C248.484,410.161,251.976,408.51,255.962,408.51z"/>
	<path class="st4" d="M282.813,438.789v-24.947H277.1v-4.723h5.713v-8.912h5.713v8.912h7.617v4.723h-7.617v24.947
		c0,2.742,0.114,4.393,0.343,4.951c0.584,1.396,1.676,2.094,3.275,2.094c1.32,0,2.768-0.405,4.342-1.219l2.209,4.723
		c-2.438,1.066-4.748,1.6-6.932,1.6c-2.158,0-3.979-0.52-5.466-1.561c-1.484-1.041-2.507-2.527-3.065-4.457
		C282.952,443.955,282.813,441.912,282.813,438.789z"/>
	<path class="st4" d="M333.543,425.535v24.793h-5.713v-4.379c-2.895,3.326-6.386,4.988-10.474,4.988
		c-3.859,0-7.015-1.225-9.464-3.675c-2.451-2.45-3.676-5.503-3.676-9.159c0-2.742,0.781-5.174,2.342-7.294
		c1.563-2.12,3.765-3.612,6.608-4.476c0.838-0.253,1.765-0.443,2.78-0.57s1.904-0.197,2.666-0.21s1.917-0.019,3.466-0.019h5.751
		c0-2.031-0.032-3.485-0.096-4.361s-0.234-1.682-0.514-2.418c-0.635-1.701-1.701-2.984-3.199-3.848
		c-1.498-0.862-3.212-1.295-5.142-1.295c-2.818,0-6.157,0.928-10.017,2.781l-2.171-4.723c4.621-2.107,8.684-3.162,12.188-3.162
		c3.377,0,6.335,0.813,8.874,2.438c2.539,1.625,4.266,3.949,5.18,6.971C333.34,419.264,333.543,421.803,333.543,425.535z
		 M309.93,438.104c0,2.158,0.717,3.986,2.152,5.484c1.434,1.498,3.446,2.246,6.036,2.246c2.082,0,3.936-0.508,5.561-1.523
		c1.625-1.015,2.768-2.551,3.428-4.607c0.229-0.736,0.399-1.587,0.515-2.553c0.113-0.965,0.177-1.871,0.189-2.723
		c0.013-0.851,0.02-2.24,0.02-4.17h-5.522c-3.656,0-6.068,0.178-7.236,0.533c-1.65,0.508-2.92,1.415-3.809,2.723
		C310.374,434.822,309.93,436.352,309.93,438.104z"/>
	<path class="st4" d="M345.826,396.685c0.672-0.673,1.529-1.009,2.57-1.009s1.897,0.336,2.57,1.009s1.01,1.53,1.01,2.571
		s-0.337,1.898-1.01,2.57c-0.673,0.673-1.529,1.01-2.57,1.01s-1.898-0.337-2.57-1.01c-0.674-0.672-1.01-1.529-1.01-2.57
		S345.152,397.357,345.826,396.685z M351.253,450.328h-5.713v-41.209h5.713V450.328z"/>
	<path class="st4" d="M379.817,408.51c2.818,0,5.376,0.743,7.675,2.229c2.297,1.485,3.979,3.561,5.046,6.227
		c0.381,0.914,0.66,1.956,0.838,3.123c0.178,1.168,0.279,2.152,0.305,2.952s0.038,1.962,0.038,3.485v23.803h-5.713v-23.422
		c0-2.412-0.051-4.158-0.152-5.237s-0.381-2.114-0.838-3.104c-0.711-1.574-1.809-2.793-3.295-3.656
		c-1.484-0.862-3.167-1.295-5.046-1.295s-3.562,0.433-5.046,1.295c-1.486,0.863-2.584,2.082-3.295,3.656
		c-0.457,0.99-0.736,2.025-0.838,3.104s-0.152,2.825-0.152,5.237v23.422h-5.713v-41.209h5.713v4.342
		C372.34,410.161,375.831,408.51,379.817,408.51z"/>
</g>
<g>
</g>
<g>
</g>
<g>
</g>
<g>
</g>
<g>
</g>
<g>
</g>
<g>
</g>
<g>
</g>
<g>
</g>
<g>
</g>
<g>
</g>
<g>
</g>
<g>
</g>
<g>
</g>
<g>
</g>
</svg>
