<?xml version="1.0" encoding="utf-8"?>
<!-- Generator: Adobe Illustrator 22.0.1, SVG Export Plug-In . SVG Version: 6.00 Build 0)  -->
<svg version="1.1"
	 id="svg8" xmlns:cc="http://creativecommons.org/ns#" xmlns:dc="http://purl.org/dc/elements/1.1/" xmlns:rdf="http://www.w3.org/1999/02/22-rdf-syntax-ns#" xmlns:svg="http://www.w3.org/2000/svg"
	 xmlns="http://www.w3.org/2000/svg" xmlns:xlink="http://www.w3.org/1999/xlink" x="0px" y="0px" viewBox="0 0 216 216"
	 style="enable-background:new 0 0 216 216;" xml:space="preserve">
<style type="text/css">
	.st0{fill:#FFFFFF;}
	.st1{fill:url(#SVGID_1_);}
	.st2{fill:url(#path3345_1_);}
	.st3{fill:url(#path3347_1_);}
	.st4{fill:url(#path3349_1_);}
	.st5{fill:url(#path3351_1_);}
	.st6{fill:url(#path3353_1_);}
	.st7{fill:url(#path3355_1_);}
	.st8{fill:url(#path3357_1_);}
	.st9{fill:url(#path3359_1_);}
	.st10{fill:url(#path3361_1_);}
	.st11{fill:url(#path3363_1_);}
</style>
<circle class="st0" cx="108" cy="108" r="99.213"/>
<linearGradient id="SVGID_1_" gradientUnits="userSpaceOnUse" x1="38.9044" y1="38.9044" x2="178.8391" y2="178.8391">
	<stop  offset="0" style="stop-color:#00C1F2"/>
	<stop  offset="1" style="stop-color:#82FFDC"/>
</linearGradient>
<path class="st1" d="M108,30.604c-42.745,0-77.396,34.651-77.396,77.396S65.255,185.396,108,185.396s77.396-34.651,77.396-77.396
	S150.745,30.604,108,30.604z M110.788,180.378c-37.874,0-68.577-30.703-68.577-68.577c0-37.874,30.703-68.577,68.577-68.577
	c37.874,0,68.577,30.703,68.577,68.577C179.365,149.675,148.662,180.378,110.788,180.378z"/>
<g>
	
		<linearGradient id="path3345_1_" gradientUnits="userSpaceOnUse" x1="-116.6953" y1="179.4278" x2="-75.6047" y2="121.2284" gradientTransform="matrix(2.8346 0 0 -2.8346 348.348 561.6965)">
		<stop  offset="0" style="stop-color:#00C1F2"/>
		<stop  offset="1" style="stop-color:#82FFDC"/>
	</linearGradient>
	<path id="path3345" class="st2" d="M62.033,104.632c0.234,0.033,0.404,0.091,0.508,0.176c0.104,0.085,0.156,0.208,0.156,0.371
		c0,0.078-0.003,0.137-0.01,0.176l-1.455,10.537c-0.033,0.234-0.117,0.397-0.254,0.488c-0.13,0.098-0.326,0.147-0.586,0.147
		c-0.501,0-0.827-0.212-0.977-0.635l-2.021-5.723l-2.021,5.723c-0.15,0.423-0.475,0.635-0.977,0.635
		c-0.26,0-0.459-0.049-0.596-0.147c-0.13-0.091-0.212-0.254-0.244-0.488l-1.455-10.537c-0.006-0.039-0.01-0.098-0.01-0.176
		c0-0.163,0.052-0.286,0.156-0.371c0.104-0.085,0.273-0.143,0.508-0.176c0.046-0.006,0.111-0.008,0.195-0.008
		c0.195,0,0.339,0.046,0.43,0.137c0.091,0.085,0.15,0.228,0.176,0.43l1.094,8.604l2.021-5.732c0.046-0.13,0.124-0.228,0.234-0.293
		c0.117-0.065,0.28-0.098,0.488-0.098c0.208,0,0.368,0.033,0.479,0.098c0.117,0.065,0.199,0.163,0.244,0.293l2.021,5.732
		l1.094-8.604c0.026-0.202,0.085-0.345,0.176-0.43c0.091-0.091,0.234-0.137,0.43-0.137
		C61.923,104.624,61.988,104.627,62.033,104.632L62.033,104.632z"/>
	
		<linearGradient id="path3347_1_" gradientUnits="userSpaceOnUse" x1="-114.0672" y1="181.2833" x2="-72.9766" y2="123.0839" gradientTransform="matrix(2.8346 0 0 -2.8346 348.348 561.6965)">
		<stop  offset="0" style="stop-color:#00C1F2"/>
		<stop  offset="1" style="stop-color:#82FFDC"/>
	</linearGradient>
	<path id="path3347" class="st3" d="M72.267,107.074c0.423,0,0.85,0.068,1.279,0.205c0.319,0.104,0.479,0.312,0.479,0.625
		c0,0.104-0.013,0.205-0.039,0.303c-0.059,0.215-0.13,0.378-0.215,0.488c-0.078,0.104-0.179,0.156-0.303,0.156
		c-0.072,0-0.143-0.013-0.215-0.039c-0.365-0.117-0.723-0.176-1.074-0.176c-0.749,0-1.452,0.228-2.109,0.684
		c-0.658,0.456-1.185,1.071-1.582,1.846c-0.397,0.768-0.596,1.605-0.596,2.51v2.1c0,0.228-0.055,0.391-0.166,0.488
		c-0.104,0.098-0.29,0.147-0.557,0.147h-0.02c-0.267,0-0.456-0.049-0.566-0.147c-0.104-0.098-0.156-0.26-0.156-0.488v-7.949
		c0-0.228,0.049-0.391,0.146-0.488c0.098-0.098,0.273-0.147,0.527-0.147h0.02c0.254,0,0.43,0.049,0.527,0.147
		c0.098,0.098,0.146,0.26,0.146,0.488v2.295c0.566-0.957,1.237-1.703,2.012-2.236C70.581,107.344,71.401,107.074,72.267,107.074
		L72.267,107.074z"/>
	
		<linearGradient id="path3349_1_" gradientUnits="userSpaceOnUse" x1="-111.4928" y1="183.1009" x2="-70.4021" y2="124.9016" gradientTransform="matrix(2.8346 0 0 -2.8346 348.348 561.6965)">
		<stop  offset="0" style="stop-color:#00C1F2"/>
		<stop  offset="1" style="stop-color:#82FFDC"/>
	</linearGradient>
	<path id="path3349" class="st4" d="M81.652,107.074c1.224,0,2.142,0.273,2.754,0.82c0.612,0.547,0.918,1.357,0.918,2.432v5.449
		c0,0.228-0.049,0.391-0.146,0.488c-0.098,0.098-0.273,0.147-0.527,0.147h-0.02c-0.254,0-0.43-0.049-0.527-0.147
		c-0.098-0.098-0.146-0.26-0.146-0.488v-0.664c-0.527,0.449-1.1,0.798-1.719,1.045c-0.612,0.247-1.26,0.371-1.943,0.371
		c-0.651,0-1.227-0.111-1.729-0.332c-0.501-0.228-0.892-0.557-1.172-0.986c-0.28-0.43-0.42-0.941-0.42-1.533
		c0-1.035,0.361-1.797,1.084-2.285c0.729-0.488,1.673-0.732,2.832-0.732c1.035,0,2.025,0.166,2.969,0.498v-0.83
		c0-0.631-0.179-1.094-0.537-1.387c-0.352-0.299-0.921-0.449-1.709-0.449c-0.488,0-0.996,0.068-1.523,0.205
		c-0.527,0.137-1.029,0.325-1.504,0.566c-0.104,0.059-0.205,0.088-0.303,0.088c-0.208,0-0.387-0.156-0.537-0.469
		c-0.072-0.156-0.107-0.287-0.107-0.391c0-0.228,0.12-0.404,0.361-0.527c0.547-0.287,1.133-0.505,1.758-0.654
		C80.389,107.152,81.021,107.074,81.652,107.074L81.652,107.074z M80.353,115.15c1.296,0,2.464-0.537,3.506-1.611v-1.064
		c-0.443-0.143-0.918-0.251-1.426-0.322c-0.508-0.078-1.019-0.117-1.533-0.117c-0.749,0-1.341,0.13-1.777,0.391
		c-0.43,0.254-0.645,0.661-0.645,1.221c0,0.475,0.163,0.846,0.488,1.113C79.299,115.02,79.761,115.15,80.353,115.15L80.353,115.15z"
		/>
	
		<linearGradient id="path3351_1_" gradientUnits="userSpaceOnUse" x1="-109.0539" y1="184.8228" x2="-67.9633" y2="126.6235" gradientTransform="matrix(2.8346 0 0 -2.8346 348.348 561.6965)">
		<stop  offset="0" style="stop-color:#00C1F2"/>
		<stop  offset="1" style="stop-color:#82FFDC"/>
	</linearGradient>
	<path id="path3351" class="st5" d="M93.849,107.074c0.807,0,1.527,0.192,2.158,0.576c0.638,0.378,1.136,0.924,1.494,1.641
		c0.365,0.71,0.547,1.546,0.547,2.51c0,0.964-0.182,1.803-0.547,2.52c-0.358,0.71-0.856,1.257-1.494,1.641
		c-0.632,0.378-1.351,0.566-2.158,0.566c-1.224,0-2.256-0.537-3.096-1.611v4.648c0,0.228-0.055,0.391-0.166,0.488
		c-0.104,0.098-0.29,0.147-0.557,0.147h-0.02c-0.267,0-0.456-0.049-0.566-0.147c-0.104-0.098-0.156-0.26-0.156-0.488v-11.738
		c0-0.228,0.049-0.391,0.146-0.488s0.273-0.147,0.527-0.147h0.02c0.254,0,0.43,0.049,0.527,0.147
		c0.098,0.098,0.146,0.26,0.146,0.488v0.908c0.41-0.534,0.885-0.944,1.426-1.23C92.622,107.217,93.211,107.074,93.849,107.074
		L93.849,107.074z M93.752,108.519c-0.579,0-1.097,0.13-1.553,0.391c-0.449,0.26-0.804,0.638-1.064,1.133
		c-0.254,0.495-0.381,1.081-0.381,1.758c0,0.677,0.127,1.263,0.381,1.758c0.26,0.495,0.615,0.872,1.064,1.133
		c0.456,0.26,0.973,0.391,1.553,0.391s1.077-0.137,1.494-0.41c0.423-0.28,0.745-0.667,0.967-1.162
		c0.221-0.501,0.332-1.071,0.332-1.709c0-0.638-0.111-1.204-0.332-1.699c-0.221-0.501-0.544-0.889-0.967-1.162
		C94.829,108.659,94.331,108.519,93.752,108.519L93.752,108.519z"/>
	
		<linearGradient id="path3353_1_" gradientUnits="userSpaceOnUse" x1="-105.8463" y1="187.0875" x2="-64.7557" y2="128.8882" gradientTransform="matrix(2.8346 0 0 -2.8346 348.348 561.6965)">
		<stop  offset="0" style="stop-color:#00C1F2"/>
		<stop  offset="1" style="stop-color:#82FFDC"/>
	</linearGradient>
	<path id="path3353" class="st6" d="M105.636,107.074c1.224,0,2.142,0.273,2.754,0.82c0.612,0.547,0.918,1.357,0.918,2.432v5.449
		c0,0.228-0.049,0.391-0.146,0.488c-0.098,0.098-0.273,0.147-0.527,0.147h-0.02c-0.254,0-0.43-0.049-0.527-0.147
		c-0.098-0.098-0.146-0.26-0.146-0.488v-0.664c-0.527,0.449-1.1,0.798-1.719,1.045c-0.612,0.247-1.26,0.371-1.943,0.371
		c-0.651,0-1.227-0.111-1.729-0.332c-0.501-0.228-0.892-0.557-1.172-0.986c-0.28-0.43-0.42-0.941-0.42-1.533
		c0-1.035,0.361-1.797,1.084-2.285c0.729-0.488,1.673-0.732,2.832-0.732c1.035,0,2.025,0.166,2.969,0.498v-0.83
		c0-0.631-0.179-1.094-0.537-1.387c-0.352-0.299-0.921-0.449-1.709-0.449c-0.488,0-0.996,0.068-1.523,0.205
		c-0.527,0.137-1.029,0.325-1.504,0.566c-0.104,0.059-0.205,0.088-0.303,0.088c-0.208,0-0.387-0.156-0.537-0.469
		c-0.072-0.156-0.107-0.287-0.107-0.391c0-0.228,0.12-0.404,0.361-0.527c0.547-0.287,1.133-0.505,1.758-0.654
		C104.373,107.152,105.005,107.074,105.636,107.074L105.636,107.074z M104.338,115.15c1.296,0,2.464-0.537,3.506-1.611v-1.064
		c-0.443-0.143-0.918-0.251-1.426-0.322c-0.508-0.078-1.019-0.117-1.533-0.117c-0.749,0-1.341,0.13-1.777,0.391
		c-0.43,0.254-0.645,0.661-0.645,1.221c0,0.475,0.163,0.846,0.488,1.113C103.283,115.02,103.745,115.15,104.338,115.15
		L104.338,115.15z"/>
	
		<linearGradient id="path3355_1_" gradientUnits="userSpaceOnUse" x1="-102.7742" y1="189.2565" x2="-61.6836" y2="131.0571" gradientTransform="matrix(2.8346 0 0 -2.8346 348.348 561.6965)">
		<stop  offset="0" style="stop-color:#00C1F2"/>
		<stop  offset="1" style="stop-color:#82FFDC"/>
	</linearGradient>
	<path id="path3355" class="st7" d="M120.236,107.074c0.423,0,0.85,0.068,1.279,0.205c0.319,0.104,0.479,0.312,0.479,0.625
		c0,0.104-0.013,0.205-0.039,0.303c-0.059,0.215-0.13,0.378-0.215,0.488c-0.078,0.104-0.179,0.156-0.303,0.156
		c-0.072,0-0.143-0.013-0.215-0.039c-0.365-0.117-0.723-0.176-1.074-0.176c-0.749,0-1.452,0.228-2.109,0.684
		c-0.658,0.456-1.185,1.071-1.582,1.846c-0.397,0.768-0.596,1.605-0.596,2.51v2.1c0,0.228-0.055,0.391-0.166,0.488
		c-0.104,0.098-0.29,0.147-0.557,0.147h-0.02c-0.267,0-0.456-0.049-0.566-0.147c-0.104-0.098-0.156-0.26-0.156-0.488v-7.949
		c0-0.228,0.049-0.391,0.146-0.488c0.098-0.098,0.273-0.147,0.527-0.147h0.02c0.254,0,0.43,0.049,0.527,0.147
		c0.098,0.098,0.146,0.26,0.146,0.488v2.295c0.566-0.957,1.237-1.703,2.012-2.236C118.55,107.344,119.37,107.074,120.236,107.074
		L120.236,107.074z"/>
	
		<linearGradient id="path3357_1_" gradientUnits="userSpaceOnUse" x1="-100.1295" y1="191.1237" x2="-59.0389" y2="132.9244" gradientTransform="matrix(2.8346 0 0 -2.8346 348.348 561.6965)">
		<stop  offset="0" style="stop-color:#00C1F2"/>
		<stop  offset="1" style="stop-color:#82FFDC"/>
	</linearGradient>
	<path id="path3357" class="st8" d="M129.386,107.074c0.885,0,1.683,0.202,2.393,0.605c0.716,0.404,1.276,0.967,1.68,1.689
		c0.41,0.716,0.615,1.527,0.615,2.432c0,0.905-0.205,1.719-0.615,2.441c-0.404,0.716-0.964,1.276-1.68,1.68
		c-0.71,0.404-1.507,0.605-2.393,0.605c-0.885,0-1.686-0.202-2.402-0.605c-0.71-0.404-1.27-0.964-1.68-1.68
		c-0.404-0.723-0.605-1.536-0.605-2.441c0-0.905,0.202-1.716,0.605-2.432c0.41-0.723,0.97-1.286,1.68-1.689
		C127.7,107.276,128.501,107.074,129.386,107.074z M129.386,108.519c-0.632,0-1.188,0.14-1.67,0.42
		c-0.482,0.273-0.856,0.661-1.123,1.162c-0.26,0.495-0.391,1.061-0.391,1.699s0.13,1.208,0.391,1.709
		c0.267,0.495,0.641,0.882,1.123,1.162c0.482,0.273,1.038,0.41,1.67,0.41c0.632,0,1.188-0.137,1.67-0.41
		c0.482-0.28,0.853-0.667,1.113-1.162c0.267-0.501,0.4-1.071,0.4-1.709c0-0.638-0.133-1.204-0.4-1.699
		c-0.26-0.501-0.632-0.889-1.113-1.162C130.575,108.659,130.018,108.519,129.386,108.519z"/>
	
		<linearGradient id="path3359_1_" gradientUnits="userSpaceOnUse" x1="-97.2037" y1="193.1894" x2="-56.1131" y2="134.9901" gradientTransform="matrix(2.8346 0 0 -2.8346 348.348 561.6965)">
		<stop  offset="0" style="stop-color:#00C1F2"/>
		<stop  offset="1" style="stop-color:#82FFDC"/>
	</linearGradient>
	<path id="path3359" class="st9" d="M144.679,107.191c0.267,0,0.452,0.049,0.557,0.147c0.111,0.098,0.166,0.26,0.166,0.488v7.949
		c0,0.228-0.049,0.391-0.146,0.488c-0.098,0.098-0.273,0.147-0.527,0.147h-0.02c-0.254,0-0.43-0.049-0.527-0.147
		c-0.098-0.098-0.146-0.26-0.146-0.488v-1.592c-0.443,0.684-1.006,1.247-1.689,1.689c-0.684,0.436-1.374,0.654-2.07,0.654
		c-0.983,0-1.745-0.283-2.285-0.85c-0.54-0.566-0.811-1.344-0.811-2.334v-5.518c0-0.228,0.052-0.391,0.156-0.488
		c0.111-0.098,0.299-0.147,0.566-0.147h0.02c0.267,0,0.452,0.049,0.557,0.147c0.111,0.098,0.166,0.26,0.166,0.488v5.371
		c0,0.586,0.143,1.048,0.43,1.387c0.293,0.332,0.742,0.498,1.348,0.498c0.56,0,1.11-0.176,1.65-0.527
		c0.547-0.358,0.993-0.84,1.338-1.445c0.352-0.612,0.527-1.276,0.527-1.992v-3.291c0-0.228,0.052-0.391,0.156-0.488
		c0.111-0.098,0.299-0.147,0.566-0.147H144.679L144.679,107.191z"/>
	
		<linearGradient id="path3361_1_" gradientUnits="userSpaceOnUse" x1="-94.5837" y1="195.0392" x2="-53.4931" y2="136.8399" gradientTransform="matrix(2.8346 0 0 -2.8346 348.348 561.6965)">
		<stop  offset="0" style="stop-color:#00C1F2"/>
		<stop  offset="1" style="stop-color:#82FFDC"/>
	</linearGradient>
	<path id="path3361" class="st10" d="M154.474,107.074c0.983,0,1.745,0.283,2.285,0.85c0.54,0.566,0.811,1.344,0.811,2.334v5.518
		c0,0.228-0.055,0.391-0.166,0.488c-0.104,0.098-0.29,0.147-0.557,0.147h-0.02c-0.267,0-0.456-0.049-0.566-0.147
		c-0.104-0.098-0.156-0.26-0.156-0.488v-5.371c0-0.586-0.146-1.045-0.439-1.377c-0.286-0.339-0.732-0.508-1.338-0.508
		c-0.56,0-1.113,0.179-1.66,0.537c-0.54,0.352-0.986,0.833-1.338,1.445c-0.345,0.605-0.518,1.266-0.518,1.982v3.291
		c0,0.228-0.055,0.391-0.166,0.488c-0.104,0.098-0.29,0.147-0.557,0.147h-0.02c-0.267,0-0.456-0.049-0.566-0.147
		c-0.104-0.098-0.156-0.26-0.156-0.488v-7.949c0-0.228,0.049-0.391,0.146-0.488c0.098-0.098,0.273-0.147,0.527-0.147h0.02
		c0.254,0,0.43,0.049,0.527,0.147c0.098,0.098,0.146,0.26,0.146,0.488v1.592c0.443-0.684,1.006-1.243,1.689-1.68
		C153.088,107.295,153.778,107.074,154.474,107.074L154.474,107.074z"/>
	
		<linearGradient id="path3363_1_" gradientUnits="userSpaceOnUse" x1="-91.2044" y1="197.4251" x2="-50.1138" y2="139.2258" gradientTransform="matrix(2.8346 0 0 -2.8346 348.348 561.6965)">
		<stop  offset="0" style="stop-color:#00C1F2"/>
		<stop  offset="1" style="stop-color:#82FFDC"/>
	</linearGradient>
	<path id="path3363" class="st11" d="M168.761,103.402c0.267,0,0.452,0.049,0.557,0.147c0.111,0.098,0.166,0.26,0.166,0.488v11.738
		c0,0.228-0.049,0.391-0.146,0.488c-0.098,0.098-0.273,0.147-0.527,0.147h-0.02c-0.254,0-0.43-0.049-0.527-0.147
		c-0.098-0.098-0.147-0.26-0.146-0.488v-0.908c-0.41,0.534-0.885,0.944-1.426,1.23c-0.54,0.286-1.13,0.43-1.768,0.43
		c-0.807,0-1.53-0.189-2.168-0.566c-0.632-0.384-1.13-0.931-1.494-1.641c-0.358-0.716-0.537-1.556-0.537-2.52
		c0-0.964,0.179-1.8,0.537-2.51c0.365-0.716,0.863-1.263,1.494-1.641c0.638-0.384,1.361-0.576,2.168-0.576
		c1.224,0,2.256,0.537,3.096,1.611v-4.648c0-0.228,0.052-0.391,0.156-0.488c0.111-0.098,0.299-0.147,0.566-0.147H168.761
		L168.761,103.402z M165.021,108.519c-0.579,0-1.081,0.14-1.504,0.42c-0.417,0.273-0.736,0.661-0.957,1.162
		c-0.221,0.495-0.332,1.061-0.332,1.699c0,0.638,0.111,1.208,0.332,1.709c0.221,0.495,0.54,0.882,0.957,1.162
		c0.423,0.273,0.924,0.41,1.504,0.41s1.094-0.13,1.543-0.391c0.456-0.26,0.811-0.638,1.064-1.133
		c0.26-0.495,0.391-1.081,0.391-1.758c0-0.677-0.13-1.263-0.391-1.758c-0.254-0.495-0.609-0.872-1.064-1.133
		C166.115,108.65,165.601,108.519,165.021,108.519L165.021,108.519z"/>
</g>
</svg>
