<?xml version="1.0" encoding="UTF-8" standalone="no"?>
<svg
   xmlns:dc="http://purl.org/dc/elements/1.1/"
   xmlns:cc="http://creativecommons.org/ns#"
   xmlns:rdf="http://www.w3.org/1999/02/22-rdf-syntax-ns#"
   xmlns:svg="http://www.w3.org/2000/svg"
   xmlns="http://www.w3.org/2000/svg"
   xmlns:xlink="http://www.w3.org/1999/xlink"
   width="3in"
   height="3in"
   viewBox="0 0 76.200001 76.200003"
   version="1.1"
   id="svg8">
  <defs
     id="defs2">
    <linearGradient
       id="linearGradient1331">
      <stop
         style="stop-color:#00c1f2;stop-opacity:1"
         offset="0"
         id="stop1327" />
      <stop
         style="stop-color:#82ffdc;stop-opacity:1"
         offset="1"
         id="stop1329" />
    </linearGradient>
    <linearGradient
       xlink:href="#linearGradient1331"
       id="linearGradient5832"
       gradientUnits="userSpaceOnUse"
       x1="24.379463"
       y1="224.23956"
       x2="65.389877"
       y2="281.31396"
       gradientTransform="translate(-6.3499995,6.35)" />
  </defs>
  <metadata
     id="metadata5">
    <rdf:RDF>
      <cc:Work
         rdf:about="">
        <dc:format>image/svg+xml</dc:format>
        <dc:type
           rdf:resource="http://purl.org/dc/dcmitype/StillImage" />
        <dc:title></dc:title>
      </cc:Work>
    </rdf:RDF>
  </metadata>
  <g
     id="layer1"
     transform="translate(0,-220.79998)">
    <circle
       style="opacity:1;fill:#ffffff;fill-opacity:1;fill-rule:nonzero;stroke-width:0.2433555"
       id="path4495"
       cy="258.89999"
       cx="38.099998"
       r="35" />
    <text
       xml:space="preserve"
       style="font-style:normal;font-variant:normal;font-weight:normal;font-stretch:normal;font-size:10.58333302px;line-height:1.25;font-family:'Courier Prime';-inkscape-font-specification:'Courier Prime, Normal';font-variant-ligatures:normal;font-variant-caps:normal;font-variant-numeric:normal;font-feature-settings:normal;text-align:start;letter-spacing:0px;word-spacing:0px;writing-mode:lr-tb;text-anchor:start;fill:#000000;fill-opacity:1;stroke:none;stroke-width:0.26458332"
       x="45.357143"
       y="252.96576"
       id="text3717"><tspan
         id="tspan3719"
         x="45.357143"
         y="261.57498" /></text>
    <path
       style="fill:url(#linearGradient5832);fill-opacity:1;fill-rule:nonzero;stroke-width:0.26458332"
       d="M 39.236516,231.33129 A 27.308778,27.59226 2.3606744 0 0 10.81425,257.77513 27.308778,27.59226 2.3606744 0 0 36.963484,286.46867 27.308778,27.59226 2.3606744 0 0 65.38575,260.02483 27.308778,27.59226 2.3606744 0 0 39.236516,231.33129 Z m 0.772265,3.28503 A 24.379463,25.324403 2.3606744 0 1 63.324885,260.92359 24.379463,25.324403 2.3606744 0 1 37.922571,285.22193 24.379463,25.324403 2.3606744 0 1 14.606968,258.9152 24.379463,25.324403 2.3606744 0 1 40.008781,234.61632 Z"
       id="path3682" />
  </g>
</svg>
