<?xml version="1.0" encoding="utf-8"?>
<!-- Generator: Adobe Illustrator 22.0.1, SVG Export Plug-In . SVG Version: 6.00 Build 0)  -->
<svg version="1.1" id="Ebene_2" xmlns="http://www.w3.org/2000/svg" xmlns:xlink="http://www.w3.org/1999/xlink" x="0px" y="0px"
	 viewBox="0 0 512 512" style="enable-background:new 0 0 512 512;" xml:space="preserve">
<style type="text/css">
	.st0{fill:#FFFFFF;}
	.st1{fill:url(#SVGID_1_);}
	.st2{fill:none;}
	.st3{fill:#A6A6A6;}
	.st4{fill:url(#SVGID_2_);}
</style>
<g>
	<path class="st0" d="M443,468c0,11-9,20-20,20H89c-11,0-20-9-20-20V44c0-11,9-20,20-20h234c11,0,26.364,6.364,34.142,14.142
		l71.716,71.716C436.636,117.636,443,133,443,144V468z"/>
	<linearGradient id="SVGID_1_" gradientUnits="userSpaceOnUse" x1="379.3681" y1="516.2671" x2="92.2861" y2="19.0266">
		<stop  offset="0" style="stop-color:#00C1F2"/>
		<stop  offset="1" style="stop-color:#82FFDC"/>
	</linearGradient>
	<path class="st1" d="M323,37c7.512,0,19.638,5.022,24.95,10.334l71.716,71.716C424.978,124.362,430,136.487,430,144v324
		c0,3.794-3.206,7-7,7H89c-3.794,0-7-3.206-7-7V44c0-3.794,3.206-7,7-7H323 M323,24H89c-11,0-20,9-20,20v424c0,11,9,20,20,20h334
		c11,0,20-9,20-20V144c0-11-6.364-26.364-14.142-34.142l-71.716-71.716C349.364,30.364,334,24,323,24L323,24z"/>
</g>
<g>
	<rect x="69" y="384.002" class="st2" width="374" height="84.15"/>
	<path class="st3" d="M183.027,396.398l9.217,43.457l8.112-27.08h5.713l8.112,27.08l9.217-43.457h6.094l-11.845,53.93h-5.789
		l-8.646-29.021l-8.646,29.021h-5.789l-11.845-53.93H183.027z"/>
	<path class="st3" d="M242.822,413.461c2.768-3.3,6.005-4.951,9.712-4.951c1.041,0,2.209,0.141,3.504,0.42l-0.838,5.027
		c-1.6-0.229-2.742-0.344-3.428-0.344c-1.93,0-3.605,0.457-5.027,1.371s-2.45,2.146-3.085,3.695
		c-0.559,1.346-0.838,3.732-0.838,7.16v24.488h-5.713v-41.209h5.713V413.461z"/>
	<path class="st3" d="M289.173,425.535v24.793h-5.713v-4.379c-2.895,3.326-6.386,4.988-10.474,4.988
		c-3.859,0-7.015-1.225-9.464-3.675c-2.451-2.45-3.676-5.503-3.676-9.159c0-2.742,0.781-5.174,2.342-7.294
		c1.563-2.12,3.765-3.612,6.608-4.476c0.838-0.253,1.765-0.443,2.78-0.57s1.904-0.197,2.666-0.21s1.917-0.019,3.466-0.019h5.751
		c0-2.031-0.032-3.485-0.096-4.361s-0.234-1.682-0.514-2.418c-0.635-1.701-1.701-2.984-3.199-3.848
		c-1.498-0.862-3.212-1.295-5.142-1.295c-2.818,0-6.157,0.928-10.017,2.781l-2.171-4.723c4.621-2.107,8.684-3.162,12.188-3.162
		c3.377,0,6.335,0.813,8.874,2.438c2.539,1.625,4.266,3.949,5.18,6.971C288.97,419.264,289.173,421.803,289.173,425.535z
		 M265.56,438.104c0,2.158,0.717,3.986,2.152,5.484c1.434,1.498,3.446,2.246,6.036,2.246c2.082,0,3.936-0.508,5.561-1.523
		c1.625-1.015,2.768-2.551,3.428-4.607c0.229-0.736,0.399-1.587,0.515-2.553c0.113-0.965,0.177-1.871,0.189-2.723
		c0.013-0.851,0.02-2.24,0.02-4.17h-5.522c-3.656,0-6.068,0.178-7.236,0.533c-1.65,0.508-2.92,1.415-3.809,2.723
		C266.004,434.822,265.56,436.352,265.56,438.104z"/>
	<path class="st3" d="M317.547,408.51c2.59,0,4.938,0.559,7.046,1.676c2.107,1.118,3.758,2.59,4.951,4.418
		c1.27,1.956,2.095,4.057,2.476,6.304s0.571,5.187,0.571,8.817s-0.19,6.569-0.571,8.816s-1.206,4.348-2.476,6.303
		c-1.193,1.828-2.844,3.301-4.951,4.418s-4.456,1.676-7.046,1.676c-4.24,0-7.858-1.662-10.854-4.988v20.146h-5.713v-56.977h5.713
		v4.381C309.688,410.174,313.307,408.51,317.547,408.51z M316.785,413.613c-3.402,0-6.005,1.244-7.808,3.732
		c-0.965,1.32-1.587,2.92-1.866,4.799c-0.279,1.88-0.419,4.406-0.419,7.58s0.14,5.699,0.419,7.578
		c0.279,1.88,0.901,3.479,1.866,4.799c1.803,2.489,4.405,3.732,7.808,3.732s6.005-1.243,7.808-3.732
		c0.965-1.319,1.587-2.919,1.866-4.799c0.279-1.879,0.419-4.404,0.419-7.578s-0.14-5.7-0.419-7.58
		c-0.279-1.879-0.901-3.479-1.866-4.799C322.79,414.857,320.188,413.613,316.785,413.613z"/>
</g>
<linearGradient id="SVGID_2_" gradientUnits="userSpaceOnUse" x1="146.461" y1="132.461" x2="368.303" y2="354.303">
	<stop  offset="0" style="stop-color:#00C1F2"/>
	<stop  offset="1" style="stop-color:#82FFDC"/>
</linearGradient>
<path class="st4" d="M256,119.302c-67.764,0-122.698,54.934-122.698,122.698S188.236,364.698,256,364.698
	S378.698,309.764,378.698,242S323.764,119.302,256,119.302z M260.42,356.742c-60.043,0-108.717-48.675-108.717-108.717
	c0-60.043,48.674-108.717,108.717-108.717c60.043,0,108.717,48.674,108.717,108.717C369.137,308.068,320.463,356.742,260.42,356.742
	z"/>
<g>
</g>
<g>
</g>
<g>
</g>
<g>
</g>
<g>
</g>
<g>
</g>
<g>
</g>
<g>
</g>
<g>
</g>
<g>
</g>
<g>
</g>
<g>
</g>
<g>
</g>
<g>
</g>
<g>
</g>
</svg>
